<?xml version="1.0" encoding="UTF-8" standalone="no"?>
<!DOCTYPE svg PUBLIC "-//W3C//DTD SVG 1.1//EN"
 "http://www.w3.org/Graphics/SVG/1.1/DTD/svg11.dtd">
<!-- Generated by graphviz version 5.0.0 (20220707.1540)
 -->
<!-- Title: event 0 Pages: 1 -->
<svg width="612pt" height="258pt"
 viewBox="0.00 0.00 612.00 258.34" xmlns="http://www.w3.org/2000/svg" xmlns:xlink="http://www.w3.org/1999/xlink">
<g id="graph0" class="graph" transform="scale(0.532359 0.532359) rotate(0) translate(4 481.27)">
<title>event 0</title>
<polygon fill="white" stroke="transparent" points="-4,4 -4,-481.27 1145.6,-481.27 1145.6,4 -4,4"/>
<!-- &#45;1 -->
<g id="node1" class="node">
<title>&#45;1</title>
<g id="a_node1"><a xlink:title="status=0">
<ellipse fill="#a0a0a0" stroke="#a0a0a0" cx="98.32" cy="-165.27" rx="0.72" ry="0.72"/>
</a>
</g>
</g>
<!-- &#45;3 -->
<g id="node3" class="node">
<title>&#45;3</title>
<g id="a_node3"><a xlink:title="status=0">
<ellipse fill="#a0a0a0" stroke="#a0a0a0" cx="203.76" cy="-182.27" rx="0.72" ry="0.72"/>
</a>
</g>
</g>
<!-- &#45;1&#45;&gt;&#45;3 -->
<g id="edge3" class="edge">
<title>&#45;1&#45;&gt;&#45;3</title>
<g id="a_edge3"><a xlink:title="d">
<path fill="none" stroke="#a0a0a0" d="M99.12,-165.28C102.22,-165.79 199.91,-181.76 202.97,-182.26"/>
</a>
</g>
<text text-anchor="middle" x="151.04" y="-182.07" font-family="Times,serif" font-size="14.00" fill="#a0a0a0"> d 0.76 GeV</text>
</g>
<!-- &#45;8 -->
<g id="node8" class="node">
<title>&#45;8</title>
<g id="a_node8"><a xlink:title="status=0">
<ellipse fill="#a0a0a0" stroke="#a0a0a0" cx="597.64" cy="-149.27" rx="0.72" ry="0.72"/>
</a>
</g>
</g>
<!-- &#45;1&#45;&gt;&#45;8 -->
<g id="edge10" class="edge">
<title>&#45;1&#45;&gt;&#45;8</title>
<g id="a_edge10"><a xlink:title="(uu)(1)">
<path fill="none" stroke="#a0a0a0" d="M99.21,-165.22C102.61,-164.29 157.74,-149.27 203.04,-149.27 203.04,-149.27 203.04,-149.27 492.92,-149.27 537.7,-149.27 593.32,-149.27 596.75,-149.27"/>
</a>
</g>
<text text-anchor="middle" x="347.98" y="-153.07" font-family="Times,serif" font-size="14.00" fill="#a0a0a0"> (uu)₁ 50 GeV</text>
</g>
<!-- &#45;2 -->
<g id="node2" class="node">
<title>&#45;2</title>
<g id="a_node2"><a xlink:title="status=0">
<ellipse fill="#a0a0a0" stroke="#a0a0a0" cx="98.32" cy="-235.27" rx="0.72" ry="0.72"/>
</a>
</g>
</g>
<!-- &#45;4 -->
<g id="node4" class="node">
<title>&#45;4</title>
<g id="a_node4"><a xlink:title="status=0">
<ellipse fill="#a0a0a0" stroke="#a0a0a0" cx="203.76" cy="-220.27" rx="0.72" ry="0.72"/>
</a>
</g>
</g>
<!-- &#45;2&#45;&gt;&#45;4 -->
<g id="edge4" class="edge">
<title>&#45;2&#45;&gt;&#45;4</title>
<g id="a_edge4"><a xlink:title="d">
<path fill="none" stroke="#a0a0a0" d="M99.14,-235.15C100.1,-233.97 108.07,-224.41 117.04,-221.27 152,-209.05 199.93,-219.57 202.9,-220.24"/>
</a>
</g>
<text text-anchor="middle" x="151.04" y="-225.07" font-family="Times,serif" font-size="14.00" fill="#a0a0a0"> d 6 GeV</text>
</g>
<!-- &#45;9 -->
<g id="node9" class="node">
<title>&#45;9</title>
<g id="a_node9"><a xlink:title="status=0">
<ellipse fill="#a0a0a0" stroke="#a0a0a0" cx="597.64" cy="-250.27" rx="0.72" ry="0.72"/>
</a>
</g>
</g>
<!-- &#45;2&#45;&gt;&#45;9 -->
<g id="edge12" class="edge">
<title>&#45;2&#45;&gt;&#45;9</title>
<g id="a_edge12"><a xlink:title="(uu)(1)">
<path fill="none" stroke="#a0a0a0" d="M99.21,-235.31C102.61,-236.19 157.8,-250.27 203.04,-250.27 203.04,-250.27 203.04,-250.27 492.92,-250.27 537.7,-250.27 593.32,-250.27 596.75,-250.27"/>
</a>
</g>
<text text-anchor="middle" x="347.98" y="-254.07" font-family="Times,serif" font-size="14.00" fill="#a0a0a0"> (uu)₁ 44 GeV</text>
</g>
<!-- &#45;5 -->
<g id="node5" class="node">
<title>&#45;5</title>
<g id="a_node5"><a xlink:title="status=0">
<ellipse fill="#a0a0a0" stroke="#a0a0a0" cx="347.98" cy="-198.27" rx="0.72" ry="0.72"/>
</a>
</g>
</g>
<!-- &#45;3&#45;&gt;&#45;5 -->
<g id="edge5" class="edge">
<title>&#45;3&#45;&gt;&#45;5</title>
<g id="a_edge5"><a xlink:title="d">
<path fill="none" stroke="#a0a0a0" d="M204.62,-182.26C207.48,-182.02 253.79,-178.27 290.48,-183.27 315.42,-186.67 345.06,-197.56 346.89,-198.24"/>
</a>
</g>
<text text-anchor="middle" x="256.48" y="-187.07" font-family="Times,serif" font-size="14.00" fill="#a0a0a0"> d 0.76 GeV</text>
</g>
<!-- &#45;4&#45;&gt;&#45;5 -->
<g id="edge6" class="edge">
<title>&#45;4&#45;&gt;&#45;5</title>
<g id="a_edge6"><a xlink:title="d">
<path fill="none" stroke="#a0a0a0" d="M204.58,-220.25C208.83,-219.6 342.7,-198.93 346.88,-198.29"/>
</a>
</g>
<text text-anchor="middle" x="256.48" y="-220.07" font-family="Times,serif" font-size="14.00" fill="#a0a0a0"> d 6 GeV</text>
</g>
<!-- &#45;6 -->
<g id="node6" class="node">
<title>&#45;6</title>
<g id="a_node6"><a xlink:title="status=0">
<ellipse fill="#a0a0a0" stroke="#a0a0a0" cx="492.2" cy="-182.27" rx="0.72" ry="0.72"/>
</a>
</g>
</g>
<!-- &#45;5&#45;&gt;&#45;6 -->
<g id="edge7" class="edge">
<title>&#45;5&#45;&gt;&#45;6</title>
<g id="a_edge7"><a xlink:title="d">
<path fill="none" stroke="#a0a0a0" d="M349.07,-198.24C350.9,-197.56 380.54,-186.67 405.48,-183.27 442.17,-178.27 488.48,-182.02 491.34,-182.26"/>
</a>
</g>
<text text-anchor="middle" x="439.48" y="-187.07" font-family="Times,serif" font-size="14.00" fill="#a0a0a0"> d 5.9 GeV</text>
</g>
<!-- &#45;7 -->
<g id="node7" class="node">
<title>&#45;7</title>
<g id="a_node7"><a xlink:title="status=0">
<ellipse fill="#a0a0a0" stroke="#a0a0a0" cx="492.2" cy="-220.27" rx="0.72" ry="0.72"/>
</a>
</g>
</g>
<!-- &#45;5&#45;&gt;&#45;7 -->
<g id="edge8" class="edge">
<title>&#45;5&#45;&gt;&#45;7</title>
<g id="a_edge8"><a xlink:title="d">
<path fill="none" stroke="#a0a0a0" d="M349.08,-198.29C353.33,-198.94 487.2,-219.61 491.38,-220.25"/>
</a>
</g>
<text text-anchor="middle" x="439.48" y="-220.07" font-family="Times,serif" font-size="14.00" fill="#a0a0a0"> d 0.81 GeV</text>
</g>
<!-- &#45;6&#45;&gt;&#45;8 -->
<g id="edge9" class="edge">
<title>&#45;6&#45;&gt;&#45;8</title>
<g id="a_edge9"><a xlink:title="d">
<path fill="none" stroke="#a0a0a0" d="M493.06,-182.25C496.01,-181.85 543.71,-175.14 578.92,-160.27 587.02,-156.85 595.75,-150.17 596.81,-149.35"/>
</a>
</g>
<text text-anchor="middle" x="544.92" y="-183.07" font-family="Times,serif" font-size="14.00" fill="#a0a0a0"> d 5.9 GeV</text>
</g>
<!-- &#45;7&#45;&gt;&#45;9 -->
<g id="edge11" class="edge">
<title>&#45;7&#45;&gt;&#45;9</title>
<g id="a_edge11"><a xlink:title="d">
<path fill="none" stroke="#a0a0a0" d="M493.07,-220.22C496.2,-219.19 546.66,-203.08 578.92,-221.27 591.72,-228.49 596.61,-248.94 596.91,-250.21"/>
</a>
</g>
<text text-anchor="middle" x="544.92" y="-225.07" font-family="Times,serif" font-size="14.00" fill="#a0a0a0"> d 0.81 GeV</text>
</g>
<!-- &#45;10 -->
<g id="node10" class="node">
<title>&#45;10</title>
<g id="a_node10"><a xlink:title="status=0">
<ellipse fill="#a0a0a0" stroke="#a0a0a0" cx="750.08" cy="-121.27" rx="0.72" ry="0.72"/>
</a>
</g>
</g>
<!-- &#45;8&#45;&gt;&#45;10 -->
<g id="edge13" class="edge">
<title>&#45;8&#45;&gt;&#45;10</title>
<path fill="none" stroke="#a0a0a0" stroke-dasharray="5,2" d="M598.47,-149.25C602.97,-148.41 744.82,-122.11 749.25,-121.29"/>
<text text-anchor="middle" x="673.86" y="-149.07" font-family="Times,serif" font-size="14.00" fill="#a0a0a0"> Internal(92) 56 GeV</text>
</g>
<!-- &#45;13 -->
<g id="node13" class="node">
<title>&#45;13</title>
<g id="a_node13"><a xlink:title="status=0">
<ellipse fill="#a0a0a0" stroke="#a0a0a0" cx="750.08" cy="-301.27" rx="0.72" ry="0.72"/>
</a>
</g>
</g>
<!-- &#45;9&#45;&gt;&#45;13 -->
<g id="edge20" class="edge">
<title>&#45;9&#45;&gt;&#45;13</title>
<path fill="none" stroke="#a0a0a0" stroke-dasharray="5,2" d="M598.47,-250.31C602.97,-251.83 744.82,-299.74 749.25,-301.23"/>
<text text-anchor="middle" x="673.86" y="-298.07" font-family="Times,serif" font-size="14.00" fill="#a0a0a0"> Internal(92) 44 GeV</text>
</g>
<!-- &#45;11 -->
<g id="node11" class="node">
<title>&#45;11</title>
<g id="a_node11"><a xlink:title="status=0">
<ellipse fill="#a0a0a0" stroke="#a0a0a0" cx="889.6" cy="-160.27" rx="0.72" ry="0.72"/>
</a>
</g>
</g>
<!-- &#45;10&#45;&gt;&#45;11 -->
<g id="edge14" class="edge">
<title>&#45;10&#45;&gt;&#45;11</title>
<g id="a_edge14"><a xlink:title="eta&#39;(958)">
<path fill="none" stroke="#a0a0a0" stroke-dasharray="5,2" d="M750.8,-121.36C750.85,-123.26 751.81,-153.86 768.8,-165.27 812.35,-194.51 886.25,-161.34 888.55,-160.29"/>
</a>
</g>
<text text-anchor="middle" x="819.3" y="-181.07" font-family="Times,serif" font-size="14.00" fill="#a0a0a0"> η&#39;(958) 3.5 GeV</text>
</g>
<!-- &#45;12 -->
<g id="node12" class="node">
<title>&#45;12</title>
<g id="a_node12"><a xlink:title="status=0">
<ellipse fill="#a0a0a0" stroke="#a0a0a0" cx="889.6" cy="-141.27" rx="0.72" ry="0.72"/>
</a>
</g>
</g>
<!-- &#45;10&#45;&gt;&#45;12 -->
<g id="edge15" class="edge">
<title>&#45;10&#45;&gt;&#45;12</title>
<g id="a_edge15"><a xlink:title="pi0">
<path fill="none" stroke="#a0a0a0" stroke-dasharray="5,2" d="M750.89,-121.41C751.81,-122.74 759.48,-133.55 768.8,-137.27 817.5,-156.72 886.41,-141.75 888.55,-141.28"/>
</a>
</g>
<text text-anchor="middle" x="819.3" y="-150.07" font-family="Times,serif" font-size="14.00" fill="#a0a0a0"> π⁰ 0.46 GeV</text>
</g>
<!-- out_0 -->
<!-- &#45;10&#45;&gt;out_0 -->
<g id="edge16" class="edge">
<title>&#45;10&#45;&gt;out_0</title>
<g id="a_edge16"><a xlink:title="pi&#45;">
<path fill="none" stroke="black" d="M750.9,-121.27C754.33,-121.24 845.34,-120.58 877.49,-120.35"/>
<polygon fill="black" stroke="black" points="877.77,-123.85 887.75,-120.28 877.72,-116.85 877.77,-123.85"/>
</a>
</g>
<text text-anchor="middle" x="819.3" y="-124.07" font-family="Times,serif" font-size="14.00"> π⁻ 2.3 GeV</text>
</g>
<!-- out_1 -->
<!-- &#45;10&#45;&gt;out_1 -->
<g id="edge17" class="edge">
<title>&#45;10&#45;&gt;out_1</title>
<g id="a_edge17"><a xlink:title="pi+">
<path fill="none" stroke="black" d="M750.89,-121.11C751.75,-119.51 758.93,-106.58 768.8,-101.27 804.92,-81.84 855.52,-81.57 877.59,-82.54"/>
<polygon fill="black" stroke="black" points="877.57,-86.05 887.78,-83.19 878.02,-79.06 877.57,-86.05"/>
</a>
</g>
<text text-anchor="middle" x="819.3" y="-105.07" font-family="Times,serif" font-size="14.00"> π⁺ 8.1 GeV</text>
</g>
<!-- out_2 -->
<!-- &#45;10&#45;&gt;out_2 -->
<g id="edge18" class="edge">
<title>&#45;10&#45;&gt;out_2</title>
<g id="a_edge18"><a xlink:title="n">
<path fill="none" stroke="black" stroke-dasharray="5,2" d="M750.79,-121.15C750.65,-118.72 748.62,-79.54 768.8,-62.27 800.37,-35.25 854.68,-39.84 877.74,-43.32"/>
<polygon fill="black" stroke="black" points="877.25,-46.79 887.7,-45.08 878.46,-39.89 877.25,-46.79"/>
</a>
</g>
<text text-anchor="middle" x="819.3" y="-66.07" font-family="Times,serif" font-size="14.00"> n 6.2 GeV</text>
</g>
<!-- out_3 -->
<!-- &#45;10&#45;&gt;out_3 -->
<g id="edge19" class="edge">
<title>&#45;10&#45;&gt;out_3</title>
<g id="a_edge19"><a xlink:title="pi+">
<path fill="none" stroke="black" d="M750.8,-121.21C750.85,-118.64 752.61,-36.49 768.8,-21.27 799.12,7.24 854.57,-0.08 877.86,-4.78"/>
<polygon fill="black" stroke="black" points="877.16,-8.21 887.68,-7.02 878.71,-1.39 877.16,-8.21"/>
</a>
</g>
<text text-anchor="middle" x="819.3" y="-25.07" font-family="Times,serif" font-size="14.00"> π⁺ 35 GeV</text>
</g>
<!-- &#45;18 -->
<g id="node18" class="node">
<title>&#45;18</title>
<g id="a_node18"><a xlink:title="status=0">
<ellipse fill="#a0a0a0" stroke="#a0a0a0" cx="1026.2" cy="-158.27" rx="0.72" ry="0.72"/>
</a>
</g>
</g>
<!-- &#45;11&#45;&gt;&#45;18 -->
<g id="edge26" class="edge">
<title>&#45;11&#45;&gt;&#45;18</title>
<g id="a_edge26"><a xlink:title="rho(770)0">
<path fill="none" stroke="#a0a0a0" stroke-dasharray="5,2" d="M890.72,-160.26C891.9,-160.18 901.56,-159.51 909.4,-159.27 960.04,-157.71 1023.19,-158.25 1025.15,-158.27"/>
</a>
</g>
<text text-anchor="middle" x="957.9" y="-163.07" font-family="Times,serif" font-size="14.00" fill="#a0a0a0"> ρ(770)⁰ 2.8 GeV</text>
</g>
<!-- out_4 -->
<!-- &#45;11&#45;&gt;out_4 -->
<g id="edge25" class="edge">
<title>&#45;11&#45;&gt;out_4</title>
<g id="a_edge25"><a xlink:title="gamma">
<path fill="none" stroke="black" stroke-dasharray="5,2" d="M890.62,-160.22C891.08,-159.3 898.52,-144.34 909.4,-138.27 943.88,-119.03 992.63,-118.62 1014.2,-119.54"/>
<polygon fill="black" stroke="black" points="1014.2,-123.05 1024.4,-120.19 1014.64,-116.06 1014.2,-123.05"/>
</a>
</g>
<text text-anchor="middle" x="957.9" y="-142.07" font-family="Times,serif" font-size="14.00"> γ 0.7 GeV</text>
</g>
<!-- out_5 -->
<!-- &#45;12&#45;&gt;out_5 -->
<g id="edge27" class="edge">
<title>&#45;12&#45;&gt;out_5</title>
<g id="a_edge27"><a xlink:title="gamma">
<path fill="none" stroke="black" stroke-dasharray="5,2" d="M890.61,-141.19C890.79,-139.48 893.91,-111.98 909.4,-100.27 941.19,-76.22 992.16,-78.44 1014.32,-80.81"/>
<polygon fill="black" stroke="black" points="1013.98,-84.29 1024.36,-82.13 1014.9,-77.35 1013.98,-84.29"/>
</a>
</g>
<text text-anchor="middle" x="957.9" y="-104.07" font-family="Times,serif" font-size="14.00"> γ 0.16 GeV</text>
</g>
<!-- out_6 -->
<!-- &#45;12&#45;&gt;out_6 -->
<g id="edge28" class="edge">
<title>&#45;12&#45;&gt;out_6</title>
<g id="a_edge28"><a xlink:title="gamma">
<path fill="none" stroke="black" stroke-dasharray="5,2" d="M890.6,-141.22C890.76,-139.14 895.97,-72.54 909.4,-60.27 938.91,-33.33 991.52,-38.36 1014.24,-42.12"/>
<polygon fill="black" stroke="black" points="1013.84,-45.61 1024.32,-44.06 1015.16,-38.74 1013.84,-45.61"/>
</a>
</g>
<text text-anchor="middle" x="957.9" y="-64.07" font-family="Times,serif" font-size="14.00"> γ 0.3 GeV</text>
</g>
<!-- &#45;14 -->
<g id="node14" class="node">
<title>&#45;14</title>
<g id="a_node14"><a xlink:title="status=0">
<ellipse fill="#a0a0a0" stroke="#a0a0a0" cx="889.6" cy="-301.27" rx="0.72" ry="0.72"/>
</a>
</g>
</g>
<!-- &#45;13&#45;&gt;&#45;14 -->
<g id="edge21" class="edge">
<title>&#45;13&#45;&gt;&#45;14</title>
<g id="a_edge21"><a xlink:title="rho(770)0">
<path fill="none" stroke="#a0a0a0" stroke-dasharray="5,2" d="M750.9,-301.27C755.01,-301.27 884.46,-301.27 888.5,-301.27"/>
</a>
</g>
<text text-anchor="middle" x="819.3" y="-305.07" font-family="Times,serif" font-size="14.00" fill="#a0a0a0"> ρ(770)⁰ 3.5 GeV</text>
</g>
<!-- &#45;15 -->
<g id="node15" class="node">
<title>&#45;15</title>
<g id="a_node15"><a xlink:title="status=0">
<ellipse fill="#a0a0a0" stroke="#a0a0a0" cx="889.6" cy="-234.27" rx="0.72" ry="0.72"/>
</a>
</g>
</g>
<!-- &#45;13&#45;&gt;&#45;15 -->
<g id="edge22" class="edge">
<title>&#45;13&#45;&gt;&#45;15</title>
<g id="a_edge22"><a xlink:title="eta">
<path fill="none" stroke="#a0a0a0" stroke-dasharray="5,2" d="M750.9,-301.13C751.85,-299.74 759.78,-288.4 768.8,-282.27 815.5,-250.54 886.35,-234.77 888.55,-234.28"/>
</a>
</g>
<text text-anchor="middle" x="819.3" y="-286.07" font-family="Times,serif" font-size="14.00" fill="#a0a0a0"> η 12 GeV</text>
</g>
<!-- &#45;16 -->
<g id="node16" class="node">
<title>&#45;16</title>
<g id="a_node16"><a xlink:title="status=0">
<ellipse fill="#a0a0a0" stroke="#a0a0a0" cx="889.6" cy="-424.27" rx="0.72" ry="0.72"/>
</a>
</g>
</g>
<!-- &#45;13&#45;&gt;&#45;16 -->
<g id="edge23" class="edge">
<title>&#45;13&#45;&gt;&#45;16</title>
<g id="a_edge23"><a xlink:title="Delta(1232)+">
<path fill="none" stroke="#a0a0a0" d="M750.8,-301.39C750.76,-303.83 750.5,-343.26 768.8,-365.27 806.15,-410.19 886.05,-423.84 888.54,-424.26"/>
</a>
</g>
<text text-anchor="middle" x="819.3" y="-423.07" font-family="Times,serif" font-size="14.00" fill="#a0a0a0"> Δ(1232)⁺ 20 GeV</text>
</g>
<!-- &#45;17 -->
<g id="node17" class="node">
<title>&#45;17</title>
<g id="a_node17"><a xlink:title="status=0">
<ellipse fill="#a0a0a0" stroke="#a0a0a0" cx="889.6" cy="-348.27" rx="0.72" ry="0.72"/>
</a>
</g>
</g>
<!-- &#45;13&#45;&gt;&#45;17 -->
<g id="edge24" class="edge">
<title>&#45;13&#45;&gt;&#45;17</title>
<g id="a_edge24"><a xlink:title="pi0">
<path fill="none" stroke="#a0a0a0" stroke-dasharray="5,2" d="M750.89,-301.42C751.8,-302.89 759.34,-314.84 768.8,-320.27 815.48,-347.06 886.34,-348.24 888.55,-348.27"/>
</a>
</g>
<text text-anchor="middle" x="819.3" y="-350.07" font-family="Times,serif" font-size="14.00" fill="#a0a0a0"> π⁰ 8.4 GeV</text>
</g>
<!-- out_7 -->
<!-- &#45;14&#45;&gt;out_7 -->
<g id="edge29" class="edge">
<title>&#45;14&#45;&gt;out_7</title>
<g id="a_edge29"><a xlink:title="pi+">
<path fill="none" stroke="black" d="M890.7,-301.28C894.05,-301.5 982.95,-307.44 1014.34,-309.54"/>
<polygon fill="black" stroke="black" points="1014.16,-313.04 1024.37,-310.21 1014.62,-306.05 1014.16,-313.04"/>
</a>
</g>
<text text-anchor="middle" x="957.9" y="-312.07" font-family="Times,serif" font-size="14.00"> π⁺ 0.59 GeV</text>
</g>
<!-- out_8 -->
<!-- &#45;14&#45;&gt;out_8 -->
<g id="edge30" class="edge">
<title>&#45;14&#45;&gt;out_8</title>
<g id="a_edge30"><a xlink:title="pi&#45;">
<path fill="none" stroke="black" d="M890.7,-301.12C891.64,-299.65 899.54,-287.78 909.4,-283.27 944.91,-267.02 992.85,-269.04 1014.18,-271.01"/>
<polygon fill="black" stroke="black" points="1013.88,-274.49 1024.21,-272.13 1014.66,-267.54 1013.88,-274.49"/>
</a>
</g>
<text text-anchor="middle" x="957.9" y="-287.07" font-family="Times,serif" font-size="14.00"> π⁻ 2.9 GeV</text>
</g>
<!-- out_9 -->
<!-- &#45;15&#45;&gt;out_9 -->
<g id="edge31" class="edge">
<title>&#45;15&#45;&gt;out_9</title>
<g id="a_edge31"><a xlink:title="gamma">
<path fill="none" stroke="black" stroke-dasharray="5,2" d="M890.7,-234.27C894.05,-234.27 982.95,-234.27 1014.34,-234.27"/>
<polygon fill="black" stroke="black" points="1014.37,-237.77 1024.37,-234.27 1014.37,-230.77 1014.37,-237.77"/>
</a>
</g>
<text text-anchor="middle" x="957.9" y="-238.07" font-family="Times,serif" font-size="14.00"> γ 7.7 GeV</text>
</g>
<!-- out_10 -->
<!-- &#45;15&#45;&gt;out_10 -->
<g id="edge32" class="edge">
<title>&#45;15&#45;&gt;out_10</title>
<g id="a_edge32"><a xlink:title="gamma">
<path fill="none" stroke="black" stroke-dasharray="5,2" d="M890.7,-234.12C891.64,-232.61 899.5,-220.38 909.4,-215.27 944.4,-197.19 992.6,-195.59 1014.09,-195.88"/>
<polygon fill="black" stroke="black" points="1014.09,-199.38 1024.2,-196.21 1014.32,-192.39 1014.09,-199.38"/>
</a>
</g>
<text text-anchor="middle" x="957.9" y="-219.07" font-family="Times,serif" font-size="14.00"> γ 4.6 GeV</text>
</g>
<!-- &#45;19 -->
<g id="node19" class="node">
<title>&#45;19</title>
<g id="a_node19"><a xlink:title="status=0">
<ellipse fill="#a0a0a0" stroke="#a0a0a0" cx="1026.2" cy="-462.27" rx="0.72" ry="0.72"/>
</a>
</g>
</g>
<!-- &#45;16&#45;&gt;&#45;19 -->
<g id="edge34" class="edge">
<title>&#45;16&#45;&gt;&#45;19</title>
<g id="a_edge34"><a xlink:title="pi0">
<path fill="none" stroke="#a0a0a0" stroke-dasharray="5,2" d="M890.7,-424.4C891.72,-425.65 900.12,-435.83 909.4,-440.27 955.91,-462.53 1023.06,-462.28 1025.15,-462.27"/>
</a>
</g>
<text text-anchor="middle" x="957.9" y="-465.07" font-family="Times,serif" font-size="14.00" fill="#a0a0a0"> π⁰ 3.3 GeV</text>
</g>
<!-- out_11 -->
<!-- &#45;16&#45;&gt;out_11 -->
<g id="edge33" class="edge">
<title>&#45;16&#45;&gt;out_11</title>
<g id="a_edge33"><a xlink:title="p">
<path fill="none" stroke="black" d="M890.7,-424.27C894.05,-424.27 982.95,-424.27 1014.34,-424.27"/>
<polygon fill="black" stroke="black" points="1014.37,-427.77 1024.37,-424.27 1014.37,-420.77 1014.37,-427.77"/>
</a>
</g>
<text text-anchor="middle" x="957.9" y="-428.07" font-family="Times,serif" font-size="14.00"> p 17 GeV</text>
</g>
<!-- out_12 -->
<!-- &#45;17&#45;&gt;out_12 -->
<g id="edge35" class="edge">
<title>&#45;17&#45;&gt;out_12</title>
<g id="a_edge35"><a xlink:title="gamma">
<path fill="none" stroke="black" stroke-dasharray="5,2" d="M890.7,-348.4C891.72,-349.65 900.12,-359.83 909.4,-364.27 945.09,-381.35 992.94,-385.18 1014.21,-386.03"/>
<polygon fill="black" stroke="black" points="1014.13,-389.53 1024.21,-386.27 1014.3,-382.53 1014.13,-389.53"/>
</a>
</g>
<text text-anchor="middle" x="957.9" y="-389.07" font-family="Times,serif" font-size="14.00"> γ 5.8 GeV</text>
</g>
<!-- out_13 -->
<!-- &#45;17&#45;&gt;out_13 -->
<g id="edge36" class="edge">
<title>&#45;17&#45;&gt;out_13</title>
<g id="a_edge36"><a xlink:title="gamma">
<path fill="none" stroke="black" stroke-dasharray="5,2" d="M890.7,-348.27C894.05,-348.27 982.95,-348.27 1014.34,-348.27"/>
<polygon fill="black" stroke="black" points="1014.37,-351.77 1024.37,-348.27 1014.37,-344.77 1014.37,-351.77"/>
</a>
</g>
<text text-anchor="middle" x="957.9" y="-352.07" font-family="Times,serif" font-size="14.00"> γ 2.6 GeV</text>
</g>
<!-- out_14 -->
<!-- &#45;18&#45;&gt;out_14 -->
<g id="edge37" class="edge">
<title>&#45;18&#45;&gt;out_14</title>
<g id="a_edge37"><a xlink:title="pi&#45;">
<path fill="none" stroke="black" d="M1027.28,-158.28C1029.98,-158.74 1099.45,-170.57 1127.35,-175.32"/>
<polygon fill="black" stroke="black" points="1127.14,-178.83 1137.58,-177.06 1128.31,-171.93 1127.14,-178.83"/>
</a>
</g>
<text text-anchor="middle" x="1083" y="-177.07" font-family="Times,serif" font-size="14.00"> π⁻ 0.97 GeV</text>
</g>
<!-- out_15 -->
<!-- &#45;18&#45;&gt;out_15 -->
<g id="edge38" class="edge">
<title>&#45;18&#45;&gt;out_15</title>
<g id="a_edge38"><a xlink:title="pi+">
<path fill="none" stroke="black" d="M1027.3,-158.13C1028.28,-156.8 1036.41,-145.98 1046,-142.27 1073.86,-131.5 1110.01,-134.75 1127.85,-137.37"/>
<polygon fill="black" stroke="black" points="1127.39,-140.84 1137.84,-139.07 1128.57,-133.94 1127.39,-140.84"/>
</a>
</g>
<text text-anchor="middle" x="1083" y="-146.07" font-family="Times,serif" font-size="14.00"> π⁺ 1.9 GeV</text>
</g>
<!-- out_16 -->
<!-- &#45;19&#45;&gt;out_16 -->
<g id="edge39" class="edge">
<title>&#45;19&#45;&gt;out_16</title>
<g id="a_edge39"><a xlink:title="gamma">
<path fill="none" stroke="black" stroke-dasharray="5,2" d="M1027.28,-462.27C1029.98,-462.27 1099.45,-462.27 1127.35,-462.27"/>
<polygon fill="black" stroke="black" points="1127.58,-465.77 1137.58,-462.27 1127.58,-458.77 1127.58,-465.77"/>
</a>
</g>
<text text-anchor="middle" x="1083" y="-466.07" font-family="Times,serif" font-size="14.00"> γ 1.5 GeV</text>
</g>
<!-- out_17 -->
<!-- &#45;19&#45;&gt;out_17 -->
<g id="edge40" class="edge">
<title>&#45;19&#45;&gt;out_17</title>
<g id="a_edge40"><a xlink:title="gamma">
<path fill="none" stroke="black" stroke-dasharray="5,2" d="M1027.3,-462.12C1028.25,-460.63 1036.21,-448.57 1046,-443.27 1072.8,-428.76 1109.42,-425.3 1127.61,-424.5"/>
<polygon fill="black" stroke="black" points="1127.9,-427.99 1137.81,-424.26 1127.74,-420.99 1127.9,-427.99"/>
</a>
</g>
<text text-anchor="middle" x="1083" y="-447.07" font-family="Times,serif" font-size="14.00"> γ 1.8 GeV</text>
</g>
<!-- in_0 -->
<!-- in_0&#45;&gt;&#45;1 -->
<g id="edge1" class="edge">
<title>in_0&#45;&gt;&#45;1</title>
<g id="a_edge1"><a xlink:title="p">
<path fill="none" stroke="black" stroke-width="2" d="M3.86,-165.27C11.99,-165.27 64.55,-165.27 87.22,-165.27"/>
<polygon fill="black" stroke="black" stroke-width="2" points="87.54,-168.77 97.54,-165.27 87.54,-161.77 87.54,-168.77"/>
</a>
</g>
<text text-anchor="middle" x="50.6" y="-169.07" font-family="Times,serif" font-size="14.00"> p 50 GeV</text>
</g>
<!-- in_1 -->
<!-- in_1&#45;&gt;&#45;2 -->
<g id="edge2" class="edge">
<title>in_1&#45;&gt;&#45;2</title>
<g id="a_edge2"><a xlink:title="p">
<path fill="none" stroke="black" stroke-width="2" d="M3.86,-235.27C11.99,-235.27 64.55,-235.27 87.22,-235.27"/>
<polygon fill="black" stroke="black" stroke-width="2" points="87.54,-238.77 97.54,-235.27 87.54,-231.77 87.54,-238.77"/>
</a>
</g>
<text text-anchor="middle" x="50.6" y="-239.07" font-family="Times,serif" font-size="14.00"> p 50 GeV</text>
</g>
</g>
</svg>
